<svg width="376" height="375" viewBox="0 0 376 375" fill="none" xmlns="http://www.w3.org/2000/svg">
<path fill-rule="evenodd" clip-rule="evenodd" d="M182.841 1.56446C181.336 3.06846 181.278 4.16846 181.278 31.2515C181.278 63.2435 181.13 62.5015 187.528 62.5015C193.926 62.5015 193.778 63.2435 193.778 31.2515C193.778 -0.740543 193.926 0.00145816 187.528 0.00145816C185.445 0.00145816 183.882 0.522458 182.841 1.56446ZM51.7267 51.8095C47.2367 56.5885 47.9148 57.6205 70.1618 79.8675C92.4848 102.19 93.7818 103.034 98.3288 98.1935C102.819 93.4145 102.141 92.3825 79.8937 70.1355C57.5707 47.8125 56.2737 46.9685 51.7267 51.8095ZM295.162 70.1355C272.997 92.3005 271.989 93.8375 276.591 98.4395C281.192 103.04 282.729 102.032 304.894 79.8675C327.217 57.5445 328.061 56.2475 323.22 51.7005C318.441 47.2105 317.409 47.8885 295.162 70.1355ZM168.778 76.1865C88.6868 89.7735 48.6597 181.906 93.4337 249.61C140.708 321.096 247.582 315.662 287.488 239.745C330.495 157.929 259.941 60.7205 168.778 76.1865ZM204.161 89.4475C274.507 101.715 309.826 182.399 270.794 241.668C224.571 311.857 117.903 297.12 92.6097 217.052C70.5537 147.232 132.06 76.8745 204.161 89.4475ZM1.59075 182.814C-0.53025 184.934 -0.53025 190.068 1.59075 192.189C3.09475 193.693 4.19475 193.751 31.2778 193.751C63.2698 193.751 62.5278 193.899 62.5278 187.501C62.5278 181.103 63.2698 181.251 31.2778 181.251C4.19475 181.251 3.09475 181.309 1.59075 182.814ZM314.091 182.814C313.049 183.855 312.528 185.418 312.528 187.501C312.528 193.899 311.786 193.751 343.778 193.751C375.77 193.751 375.028 193.899 375.028 187.501C375.028 181.103 375.77 181.251 343.778 181.251C316.695 181.251 315.595 181.309 314.091 182.814ZM70.8777 294.337C48.7827 316.295 46.6548 319.513 51.4768 323.672C56.3358 327.863 58.6897 326.29 80.6917 304.151C102.122 282.587 103.009 281.199 98.2197 276.7C93.4897 272.257 92.3647 272.983 70.8777 294.337ZM276.727 276.809C272.237 281.588 272.915 282.62 295.162 304.867C317.485 327.19 318.782 328.034 323.329 323.193C327.819 318.414 327.141 317.382 304.894 295.135C282.571 272.812 281.274 271.968 276.727 276.809ZM182.841 314.064C181.336 315.568 181.278 316.668 181.278 343.751C181.278 375.743 181.13 375.001 187.528 375.001C193.926 375.001 193.778 375.743 193.778 343.751C193.778 311.759 193.926 312.501 187.528 312.501C185.445 312.501 183.882 313.022 182.841 314.064Z" fill="white"/>
</svg>
