<svg width="363" height="375" viewBox="0 0 363 375" fill="none" xmlns="http://www.w3.org/2000/svg">
<path fill-rule="evenodd" clip-rule="evenodd" d="M170.439 0.314407C46.8099 15.0974 -28.7431 132.306 10.3589 248.656C60.4239 397.627 268.064 420.251 347.356 285.375C366.949 252.047 367.449 235.674 348.536 246.719C301.653 274.101 237.312 264.016 198.174 223.152C136.398 158.653 160.706 54.0144 245.574 19.1074C251.033 16.8624 252.621 10.0664 248.332 7.30041C246.392 6.04841 236.21 3.59341 225.127 1.70541C217.984 0.487407 177.582 -0.539593 170.439 0.314407ZM219.521 14.3744L222.899 14.8474L218.349 17.5874C165.711 49.2844 138.997 114.674 154.817 173.097C175.921 251.029 260.773 294.825 336.857 267.057L343.173 264.753L339.388 271.939C272.558 398.809 83.8509 388.589 27.1289 255.028C-17.0931 150.899 52.0819 28.5904 163.017 14.7634C166.885 14.2814 170.928 13.7374 172.002 13.5544C174.716 13.0934 215.382 13.7944 219.521 14.3744Z" fill="white"/>
</svg>
