<svg width="375" height="375" viewBox="0 0 375 375" fill="none" xmlns="http://www.w3.org/2000/svg">
<path fill-rule="evenodd" clip-rule="evenodd" d="M219.869 2.10857C218.362 4.02557 218.25 5.17957 218.25 18.8006C218.25 35.8526 218.813 37.5506 224.47 37.5506C230.852 37.5506 231.141 36.7376 231.141 18.8006C231.141 3.17757 231.124 3.02457 229.296 1.54357C226.49 -0.728427 221.884 -0.452427 219.869 2.10857ZM110.438 31.0906C101.901 34.0696 103.455 37.8816 119.98 54.4946C135.847 70.4466 137.58 71.4166 142.114 66.8826C146.287 62.7096 145.512 61.3776 129.773 45.6826C116.082 32.0286 113.447 30.0406 110.438 31.0906ZM335.047 31.2966C330.808 33.0326 305.75 59.8576 305.75 62.6586C305.75 66.4106 308.661 69.1386 312.548 69.0286C316.646 68.9126 344.031 41.7026 344.031 37.7476C344.031 33.3336 338.962 29.6936 335.047 31.2966ZM206.922 51.3086C172.144 57.5266 142.421 82.7796 130.458 116.275C128.888 120.67 125.281 135.645 125.281 137.767C125.281 137.966 123.105 138.557 120.445 139.08C78.9941 147.235 49.5861 189.65 56.7931 230.884C57.4661 234.736 57.9461 237.912 57.8601 237.942C57.7741 237.971 55.0661 238.628 51.8441 239.401C-10.3029 254.31 -18.6639 341.599 39.4541 368.748C53.2451 375.191 40.1841 374.66 185.047 374.66H313.953L320.814 372.508C402.051 347.024 387.527 228.245 302.807 225.248L291.662 224.853L297.775 218.486C363.949 149.558 301.377 34.4196 206.922 51.3086ZM240.711 64.5126C306.923 77.0736 334.689 158.066 289.787 207.668C285.338 212.583 285.396 212.574 283.2 208.667C272.637 189.872 242.004 177.2 219.031 182.122C210.214 184.012 211.008 184.179 208.987 180.005C197.866 157.037 167.341 137.551 142.483 137.551H138.764L139.443 133.84C145.986 98.0746 175.527 69.8866 212.781 63.8606C217.922 63.0286 234.989 63.4276 240.711 64.5126ZM338.619 145.859C337.729 146.992 337 148.878 337 150.051C337 151.224 337.729 153.11 338.619 154.243L340.238 156.301H355.72C373.803 156.301 374.855 155.957 374.855 150.051C374.855 144.145 373.803 143.801 355.72 143.801H340.238L338.619 145.859ZM152.625 152.416C172.4 157.1 190.193 171.625 199.137 190.384C203.82 200.208 205.063 200.755 214.64 197.211C240.673 187.575 271.088 203.549 278.807 230.91C281.037 238.816 280.783 238.711 297.758 238.717C378.813 238.748 384.473 354.528 303.774 361.787C297.443 362.357 256.699 362.549 177.625 362.381L60.8281 362.134L54.7451 360.414C11.3771 348.153 -1.72088 295.18 31.1641 265.046C39.5221 257.388 54.4681 250.88 63.7831 250.844C73.2201 250.807 74.3101 247.914 70.7061 232.473C59.6741 185.208 104.816 141.092 152.625 152.416Z" fill="white"/>
</svg>
