<svg width="375" height="375" viewBox="0 0 375 375" fill="none" xmlns="http://www.w3.org/2000/svg">
<path fill-rule="evenodd" clip-rule="evenodd" d="M254.732 0.341272C254.087 0.491272 250.923 1.03027 247.701 1.54027C186.156 11.2713 142.213 70.6333 150.256 133.176L150.859 137.864H137.366C86.025 137.864 48.337 181.628 56.633 231.614C57.204 235.051 57.624 237.876 57.568 237.891C57.512 237.905 54.829 238.547 51.607 239.316C-10.505 254.144 -18.876 341.533 39.217 368.67C53.008 375.113 39.947 374.582 184.81 374.582H313.716L320.577 372.43C392.178 349.969 392.359 248.398 320.834 227.693L316.234 226.362L320.834 223.888C344.327 211.255 363.452 189.18 373.092 163.568C377.505 151.844 372.447 148.07 360.449 154.135C339.247 164.851 317.311 165.319 296.529 155.497C239.136 128.373 239.725 47.0013 297.518 18.7913C310.941 12.2393 310.049 5.54127 295.314 2.24127C288.517 0.719271 259.036 -0.661728 254.732 0.341272ZM276.216 15.7533C219.32 60.2883 232.921 148.871 300.11 171.377C315.445 176.514 337.985 177.059 351.147 172.61C354.36 171.524 354.428 171.999 351.731 176.684C340.785 195.707 318.589 212.968 296.354 219.749L289.93 221.709L287.202 216.114C274.782 190.642 244.427 175.938 217.622 182.411C211.437 183.904 210.397 183.855 209.822 182.042C206.228 170.719 184.986 150.468 170.038 144.115L165.053 141.996L163.994 135.633C153.272 71.2253 202.057 13.6623 267.622 13.3613L279.341 13.3073L276.216 15.7533ZM155.116 153.066C174.834 158.842 190.08 171.94 199.119 190.872C203.504 200.058 204.926 200.64 214.403 197.133C240.32 187.54 269.915 202.879 278.152 230.174C280.741 238.753 280.49 238.64 297.197 238.67C378.655 238.814 383.907 354.479 302.787 361.777C297.415 362.26 250.321 362.458 177.388 362.303L60.591 362.056L54.508 360.336C16.363 349.552 0.506014 306.874 22.572 274.382C30.881 262.146 46.723 252.587 61.117 251.124C73.229 249.893 74.522 247.824 70.982 235.333C57.199 186.687 106.226 138.747 155.116 153.066Z" fill="white"/>
</svg>
