<svg width="376" height="239" viewBox="0 0 376 239" fill="none" xmlns="http://www.w3.org/2000/svg">
<path fill-rule="evenodd" clip-rule="evenodd" d="M120.422 2.68657C76.058 12.9186 48.469 55.7576 58.005 99.6076C58.418 101.51 58.197 101.671 53.885 102.615C-10.912 116.802 -18.625 209.269 42.932 233.917C56.604 239.392 45.816 239.004 184.484 239.004C324.48 239.004 315.205 239.365 329.406 233.361C403.958 201.837 383.665 92.2146 302.625 88.6906L291.859 88.2226L289.305 82.3406C277.269 54.6256 244.203 38.5956 215.582 46.6016L211.523 47.7366L210.553 45.3956C197.982 15.0466 155.046 -5.29943 120.422 2.68657ZM154.774 16.7776C174.636 21.9916 190.131 34.7706 199.518 53.6776C204.619 63.9516 205.781 64.4596 215.64 60.7236C240.758 51.2066 270.804 66.8816 279.064 93.8106C281.767 102.627 280.994 102.282 298.081 102.306C371.825 102.409 387.55 201.611 317.297 223.529L310.266 225.723L188.391 225.943C60.294 226.173 60.492 226.178 50.257 222.619C-5.47603 203.237 4.63897 121.521 63.636 114.535C73.527 113.363 74.951 111.272 72.306 101.801C58.225 51.3656 104.557 3.59656 154.774 16.7776Z" fill="white"/>
</svg>
