<svg width="377" height="301" viewBox="0 0 377 301" fill="none" xmlns="http://www.w3.org/2000/svg">
<path fill-rule="evenodd" clip-rule="evenodd" d="M127.246 1.06554C82.5021 6.85255 49.4241 51.8615 57.9621 95.3385L59.0771 101.018L57.0461 101.462C13.1511 111.063 -11.0659 155.456 5.77111 195.459L7.81911 200.323L5.50111 206.332C-9.57489 245.427 12.0161 288.096 52.3091 298.835L58.9221 300.598H185.875H312.828L320.305 298.53C363.9 286.473 386.927 240.918 370.976 198.285C369.53 194.422 369.517 194.033 370.732 191.149C390.91 143.226 354.588 88.7255 302.12 88.1975L292.193 88.0975L290.617 83.8005C280.341 55.7775 246.488 38.3015 217.19 45.8935C214.481 46.5955 212.17 47.0615 212.054 46.9305C211.939 46.7985 210.938 44.8875 209.831 42.6835C195.567 14.2805 160.746 -3.26645 127.246 1.06554ZM149.426 14.6605C171.821 18.5665 191.301 33.8165 200.957 55.0035C204.52 62.8225 206.389 63.6315 214.427 60.8285C242.519 51.0315 270.311 64.9615 279.636 93.5126C282.504 102.296 283.647 103.029 292.519 101.769C333.652 95.9295 371.132 135.706 361.669 175.154L360.701 179.187L355.464 173.877C339.428 157.618 316.152 148.348 296.846 150.532L292.353 151.04L290.697 146.522C280.344 118.274 246.602 100.772 217.19 108.394C214.481 109.096 212.188 109.562 212.095 109.431C212.001 109.299 210.593 106.731 208.965 103.723C183.331 56.3475 116.875 48.8625 78.8271 89.0655C70.4401 97.9275 70.6031 98.0955 70.7111 80.6755C70.9671 39.1575 108.655 7.55055 149.426 14.6605ZM154.625 78.4255C175.364 83.5385 191.835 97.4886 201.075 117.765C204.609 125.519 205.792 126.011 214.355 123.297C243.669 114.003 270.269 127.333 279.636 156.013C282.508 164.807 283.64 165.53 292.569 164.262C318.16 160.63 344.507 174.664 356.115 198.112C374.501 235.248 353.326 277.934 312.232 286.579C303.932 288.325 66.7491 288.261 58.3871 286.511C-4.25389 273.398 1.86311 183.251 65.8631 176.346C74.1061 175.456 75.4341 172.575 72.5111 161.926C58.9871 112.663 104.75 66.1275 154.625 78.4255ZM62.0021 115.637C57.8211 125.122 55.7671 146.605 57.9651 157.839L59.0771 163.518L57.0461 163.931C44.1111 166.565 31.0351 173.256 21.8021 181.967L16.4821 186.985L15.2411 181.528C8.80511 153.231 25.7741 124.471 53.8441 116.101C61.2411 113.895 62.8091 113.806 62.0021 115.637Z" fill="white"/>
</svg>
