<svg width="376" height="302" viewBox="0 0 376 302" fill="none" xmlns="http://www.w3.org/2000/svg">
<path fill-rule="evenodd" clip-rule="evenodd" d="M126.672 1.30049C83.905 6.59749 51.839 47.4565 56.803 90.3295C57.322 94.8085 57.786 99.1215 57.834 99.9155C57.904 101.067 56.818 101.643 52.453 102.77C-5.76103 117.799 -18.635 194.798 31.556 227.748C45.42 236.85 69.041 241.966 73.801 236.898C78.893 231.478 74.825 226.291 64.753 225.361C-2.25203 219.178 -3.86703 122.718 62.896 114.455C73.647 113.125 75.063 111.239 72.442 101.743C54.859 38.0445 126.575 -11.4355 179.171 28.1075C187.776 34.5765 193.922 42.2975 199.719 53.9225C204.429 63.3665 205.526 63.9115 214.123 61.0655C243.323 51.3975 271.189 65.9865 279.758 95.4265C281.776 102.359 283.523 103.23 293.013 102.036C329.662 97.4235 362.219 126.435 362.219 163.706C362.219 197.501 334.501 225.425 300.956 225.425C290.265 225.425 285.927 228.518 288.055 234.622C291.146 243.489 323.912 238.56 342.055 226.498C404.028 185.298 375.158 89.1775 300.579 88.4085L291.673 88.3165L290.723 85.5735C280.674 56.5465 246.44 38.2555 216.906 46.1355C214.543 46.7665 212.395 47.2865 212.132 47.2915C211.87 47.2965 210.552 45.2295 209.203 42.6985C193.756 13.7185 160.618 -2.90451 126.672 1.30049ZM176.755 128.005C170.045 134.716 152.023 177.75 150.177 191.472C146.994 215.135 173.055 233.664 195.047 223.372C210.147 216.306 216.188 200.864 211.124 182.275C207.449 168.787 190.829 132.16 186.35 127.681C184.191 125.522 179.065 125.695 176.755 128.005ZM185.877 154.917C199.842 184.621 202.505 196.551 196.939 204.471C186.233 219.704 163.586 212.993 163.586 194.589C163.586 186.96 178.821 147.3 181.752 147.3C182.051 147.3 183.907 150.728 185.877 154.917ZM239.66 190.073C232.245 196.263 212.992 244.165 212.868 256.734C212.533 290.642 258.22 301.338 272.698 270.741C278.952 257.524 275.071 240.821 257.747 206.397C248.488 187.998 245.441 185.248 239.66 190.073ZM114.255 203.005C105.836 211.424 87.699 257.27 87.769 269.957C87.967 306.212 138.844 313.383 149.388 278.643C153.007 266.72 147.971 248.916 132.141 217.665C123.53 200.663 119.72 197.54 114.255 203.005ZM246.173 212.73C259.316 239.636 264.063 255.361 261.44 263.307C257.394 275.566 240.64 279.452 231.44 270.264C222.838 261.674 224.58 249.986 238.967 219.761C244.277 208.606 244.197 208.684 246.173 212.73ZM120.797 224.449C138.158 261.132 140.551 272.551 132.781 281.628C123.053 292.993 104.603 288.295 101.313 273.615C99.784 266.79 103.637 253.903 113.212 233.824C119.137 221.4 119.274 221.231 120.797 224.449Z" fill="white"/>
</svg>
