<svg width="376" height="351" viewBox="0 0 376 351" fill="none" xmlns="http://www.w3.org/2000/svg">
<path fill-rule="evenodd" clip-rule="evenodd" d="M235.187 1.1016C231.975 2.5026 231.75 3.3186 231.75 13.5876C231.75 21.7596 231.876 22.4906 233.558 24.0706C236.036 26.3986 240.311 26.3466 242.551 23.9616C246.323 19.9466 244.55 0.769602 240.408 0.769602C240.013 0.769602 239.222 0.606602 238.65 0.407602C238.078 0.207602 236.519 0.520602 235.187 1.1016ZM335.266 32.3406C332.225 33.7386 320.348 45.8436 319.321 48.5916C317.448 53.6076 322.111 58.4396 327.37 56.9316C330.233 56.1106 342.42 44.3466 343.871 41.0036C346.501 34.9476 341.201 29.6136 335.266 32.3406ZM241.85 38.3996C217.539 40.6706 191.7 55.3466 179.84 73.6206C178.096 76.3076 178.174 76.3126 172.518 73.1156C114.052 40.0686 40.8469 92.8606 56.1509 157.035C56.2709 157.535 53.3379 158.682 49.2749 159.724C-5.3521 173.736 -17.3051 246.235 29.8549 277.511C50.3479 291.101 79.6049 292.12 72.8239 279.008C71.3799 276.216 68.7099 275.276 60.6559 274.725C37.0789 273.113 16.4109 252.85 13.9119 228.895C10.8459 199.501 31.3879 174.468 61.4169 171.007C72.0459 169.782 73.2849 167.331 69.6769 154.676C63.4889 132.974 73.4419 105.032 92.6159 90.2776C125.857 64.6986 172.832 75.1596 192.21 112.456C197.709 123.039 198.519 123.481 207.212 120.644C234.978 111.58 259.529 123.74 269.607 151.547C272.719 160.134 273.589 160.627 283.378 159.355C329.45 153.367 364.289 201.764 343.504 242.881C334.301 261.088 313.045 274.989 294.408 274.989C286.981 274.989 284.094 277.013 284.094 282.223C284.094 287.417 286.562 288.585 296.379 288.033C353.009 284.85 383.255 217.569 348.002 173.204C344.434 168.714 333.621 158.593 332.384 158.585C332.087 158.584 332.676 156.206 333.69 153.301C354.396 94.0356 305.196 32.4826 241.85 38.3996ZM259.27 51.9246C287.245 54.3016 313.31 76.3526 322.086 105.067C325.71 116.922 324.439 151.551 320.381 151.551C320.237 151.551 317.024 150.519 313.24 149.257C305.44 146.657 292.31 144.943 286.12 145.716L282.04 146.226L281.133 143.224C273.258 117.169 238.673 98.8826 210.276 105.761C207.11 106.528 204.715 106.773 204.572 106.346C203.787 103.991 197.857 95.2856 193.596 90.2346L188.646 84.3656L191.451 80.5456C197.006 72.9776 208.111 63.7976 217.297 59.1776C227.283 54.1556 243.686 50.4296 252.063 51.2806C253.137 51.3896 256.38 51.6796 259.27 51.9246ZM353.937 119.854C349.973 121.58 349.084 127.292 352.308 130.321C355.132 132.974 371.284 132.891 373.801 130.212C377.016 126.79 375.778 121.095 371.494 119.602C368.072 118.409 356.888 118.57 353.937 119.854ZM170.922 177.398C162.674 185.082 144.641 230.872 144.641 244.129C144.641 277.973 189.443 288.432 203.879 257.958C210.007 245.023 206.49 228.809 190.599 196.734C181.07 177.5 179.824 175.77 175.5 175.77C173.711 175.77 172.026 176.369 170.922 177.398ZM177.805 200.574C194.089 233.508 196.881 247.591 188.882 256.463C176.944 269.704 156.382 260.334 157.719 242.261C158.32 234.13 172.917 196.864 175.5 196.864C175.758 196.864 176.796 198.533 177.805 200.574ZM233.422 239.898C225.174 247.582 207.141 293.372 207.141 306.629C207.141 340.473 251.943 350.932 266.379 320.458C272.507 307.523 268.99 291.309 253.099 259.234C243.57 240 242.324 238.27 238 238.27C236.211 238.27 234.526 238.869 233.422 239.898ZM114.672 252.398C106.424 260.082 88.3909 305.872 88.3909 319.129C88.3909 352.973 133.193 363.432 147.629 332.958C153.757 320.023 150.24 303.809 134.349 271.734C124.82 252.5 123.574 250.77 119.25 250.77C117.461 250.77 115.776 251.369 114.672 252.398ZM240.305 263.074C256.589 296.008 259.381 310.091 251.382 318.963C239.444 332.204 218.882 322.834 220.219 304.761C220.82 296.63 235.417 259.364 238 259.364C238.258 259.364 239.296 261.033 240.305 263.074ZM121.555 275.574C137.839 308.508 140.631 322.591 132.632 331.463C120.694 344.704 100.132 335.334 101.469 317.261C102.07 309.13 116.667 271.864 119.25 271.864C119.508 271.864 120.546 273.533 121.555 275.574Z" fill="white"/>
</svg>
