<svg width="376" height="302" viewBox="0 0 376 302" fill="none" xmlns="http://www.w3.org/2000/svg">
<path fill-rule="evenodd" clip-rule="evenodd" d="M126.672 1.30049C83.905 6.59749 51.839 47.4565 56.803 90.3295C57.322 94.8085 57.786 99.1215 57.834 99.9155C57.904 101.067 56.818 101.643 52.453 102.77C-5.76103 117.799 -18.635 194.798 31.556 227.748C45.42 236.85 69.041 241.966 73.801 236.898C78.893 231.478 74.825 226.291 64.753 225.361C-2.25203 219.178 -3.86703 122.718 62.896 114.455C73.647 113.125 75.063 111.239 72.442 101.743C54.859 38.0445 126.575 -11.4355 179.171 28.1075C187.776 34.5765 193.922 42.2975 199.719 53.9225C204.429 63.3665 205.526 63.9115 214.123 61.0655C243.323 51.3975 271.189 65.9865 279.758 95.4265C281.776 102.359 283.523 103.23 293.013 102.036C329.662 97.4235 362.219 126.435 362.219 163.706C362.219 197.501 334.501 225.425 300.956 225.425C290.265 225.425 285.927 228.518 288.055 234.622C291.146 243.489 323.912 238.56 342.055 226.498C404.028 185.298 375.158 89.1775 300.579 88.4085L291.673 88.3165L290.723 85.5735C280.674 56.5465 246.44 38.2555 216.906 46.1355C214.543 46.7665 212.395 47.2865 212.132 47.2915C211.87 47.2965 210.552 45.2295 209.203 42.6985C193.756 13.7185 160.618 -2.90451 126.672 1.30049ZM122.739 126.168C119.891 127.322 119.313 128.772 107.079 165.396C93.429 206.26 93.057 207.567 94.367 210.027C96.289 213.634 96.452 213.656 122.961 213.682C141.748 213.701 148.156 213.94 148.156 214.626C148.156 215.131 144.641 232.911 140.344 254.135C130.832 301.117 130.829 301.207 138.94 301.207C143.13 301.207 142.169 302.533 182.041 241.742C229.385 169.559 228.488 175.425 192.18 175.425C180.858 175.425 171.594 175.239 171.594 175.012C171.594 174.785 173.879 165.479 176.672 154.331C182.967 129.207 182.986 128.31 177.281 126.141C174.95 125.255 124.93 125.28 122.739 126.168ZM166.601 140.073C165.596 143.42 157.35 176.945 156.769 180.048C155.248 188.156 156.643 188.672 180.725 188.906L200.402 189.097L176.9 224.855C163.973 244.522 153.259 260.476 153.091 260.307C152.922 260.139 155.083 248.674 157.892 234.829C165.512 197.274 167.777 200.425 133.178 200.425C114.731 200.425 109.785 200.216 110.067 199.448C110.265 198.911 114.902 185.025 120.372 168.589L130.318 138.706H148.665C165.773 138.706 166.984 138.799 166.601 140.073ZM233.41 202.573C227.543 207.471 209.041 250.73 206.755 264.892C201.937 294.752 238.804 313.56 260.204 292.16C274.326 278.038 272.191 260.019 251.532 218.965C242.383 200.785 239.105 197.82 233.41 202.573ZM239.552 224.449C250.662 247.805 255.969 262.392 255.969 269.577C255.969 289.207 230.4 295.031 221.428 277.445C217.59 269.921 220.681 257.546 232.717 232.261C237.857 221.463 238.035 221.26 239.552 224.449Z" fill="white"/>
</svg>
