<svg width="376" height="302" viewBox="0 0 376 302" fill="none" xmlns="http://www.w3.org/2000/svg">
<path fill-rule="evenodd" clip-rule="evenodd" d="M126.672 1.30049C83.905 6.59749 51.839 47.4565 56.803 90.3295C57.322 94.8085 57.786 99.1215 57.834 99.9155C57.904 101.067 56.818 101.643 52.453 102.77C-5.76103 117.799 -18.635 194.798 31.556 227.748C45.42 236.85 69.041 241.966 73.801 236.898C78.893 231.478 74.825 226.291 64.753 225.361C-2.25203 219.178 -3.86703 122.718 62.896 114.455C73.647 113.125 75.063 111.239 72.442 101.743C54.859 38.0445 126.575 -11.4355 179.171 28.1075C187.776 34.5765 193.922 42.2975 199.719 53.9225C204.429 63.3665 205.526 63.9115 214.123 61.0655C243.323 51.3975 271.189 65.9865 279.758 95.4265C281.776 102.359 283.523 103.23 293.013 102.036C329.662 97.4235 362.219 126.435 362.219 163.706C362.219 197.501 334.501 225.425 300.956 225.425C290.265 225.425 285.927 228.518 288.055 234.622C291.146 243.489 323.912 238.56 342.055 226.498C404.028 185.298 375.158 89.1775 300.579 88.4085L291.673 88.3165L290.723 85.5735C280.674 56.5465 246.44 38.2555 216.906 46.1355C214.543 46.7665 212.395 47.2865 212.132 47.2915C211.87 47.2965 210.552 45.2295 209.203 42.6985C193.756 13.7185 160.618 -2.90451 126.672 1.30049ZM166.489 138.668C163.236 139.987 162.638 141.705 162.333 150.625L162.04 159.199L155.293 152.509C145.96 143.253 141.005 142.095 138.312 148.54C136.723 152.342 137.857 154.49 145.552 162.25L152.242 168.996L143.668 169.289C132.673 169.666 129.691 171.922 131.789 178.278C133.014 181.988 134.42 182.456 144.347 182.456H153.14L145.076 190.651C136.263 199.607 135.24 202.505 139.625 206.089C143.517 209.269 146.301 208.109 154.588 199.854L162.219 192.251V199.737C162.219 210.978 163.632 213.706 169.453 213.706C174.426 213.706 175.5 211.491 175.5 201.233V192.376L183.27 199.916C192.055 208.441 194.707 209.414 198.582 205.539C202.458 201.663 201.484 199.011 192.96 190.226L185.42 182.456H194.386C204.698 182.456 206.774 181.397 206.725 176.156C206.675 170.685 203.68 169.175 192.881 169.175H185.364L192.932 161.472C201.35 152.903 202.454 150.112 198.742 146.771C194.372 142.838 192.047 143.741 182.727 152.989L175.5 160.16L175.475 151.191C175.448 141.505 174.991 140.146 171.284 138.737C168.828 137.803 168.63 137.8 166.489 138.668ZM235.175 214.044C231.937 215.456 230.969 218.503 230.969 227.283V234.377L224.091 227.531C215.109 218.591 209.705 217.248 207.151 223.32C205.533 227.17 206.91 229.849 214.347 237.32L221.171 244.175H214.077C202.649 244.175 198.379 247.131 200.6 253.501C201.818 256.996 203.279 257.457 213.129 257.457H221.955L214.175 265.267C203.243 276.24 203.333 283.103 214.402 282.547C215.531 282.491 218.932 279.81 223.582 275.311L230.969 268.165V275.195C230.969 285.956 232.442 288.707 238.203 288.707C243.18 288.707 244.25 286.495 244.25 276.206V267.32L251.953 274.889C260.629 283.413 263.841 284.598 267.551 280.648C271.205 276.758 270.12 273.895 261.71 265.227L254.17 257.457H263.136C273.349 257.457 275.5 256.385 275.5 251.3C275.5 245.658 272.688 244.175 261.987 244.175H254.958L262.104 236.788C272.215 226.337 271.806 219.217 261.133 219.867C260.321 219.917 256.19 223.362 251.953 227.524L244.25 235.092V225.962C244.25 216.788 243.284 213.706 240.408 213.706C240.013 213.706 239.222 213.543 238.65 213.344C238.078 213.145 236.514 213.46 235.175 214.044ZM122.675 226.544C119.442 227.953 118.469 231.003 118.469 239.719V246.748L111.082 239.602C101.942 230.76 96.674 229.744 94.363 236.376C93.098 240.003 94.342 242.226 101.891 249.839L108.671 256.676H101.435C90.646 256.676 86.162 259.392 87.586 265.064C88.646 269.289 90.376 269.957 100.258 269.957H109.39L101.43 278.047C92.615 287.004 91.789 289.011 95.253 293.039C98.929 297.312 101.932 296.226 110.759 287.432L118.469 279.751V287.238C118.469 298.479 119.882 301.207 125.703 301.207C130.68 301.207 131.75 298.995 131.75 288.706V279.82L139.453 287.389C148.282 296.064 151.697 297.263 155.131 292.898C158.46 288.665 157.543 286.315 149.21 277.727L141.67 269.957H150.636C160.967 269.957 163 268.911 163 263.598C163 258.54 160.443 257.134 150.417 256.676L141.864 256.285L149.307 248.878C157.654 240.572 158.743 237.727 154.942 234.156C151.003 230.456 148.057 231.571 139.453 240.024L131.75 247.592V238.609C131.75 229.632 130.68 226.206 127.877 226.206C127.499 226.206 126.722 226.043 126.15 225.844C125.578 225.645 124.014 225.96 122.675 226.544Z" fill="white"/>
</svg>
