<svg width="376" height="295" viewBox="0 0 376 295" fill="none" xmlns="http://www.w3.org/2000/svg">
<path fill-rule="evenodd" clip-rule="evenodd" d="M123.31 1.17991C78.565 8.97891 48.492 51.9729 57.014 95.9589C57.986 100.977 58.481 100.441 51.149 102.316C-9.981 117.95 -18.691 202.779 37.922 231.15C50.342 237.374 69.084 240.233 72.842 236.475C77.817 231.5 74.102 224.999 66.284 224.999C56.61 224.999 41.074 219.136 33.075 212.467C-4.337 181.274 12.713 120.577 60.717 114.06C73.629 112.307 74.296 111.365 71.348 99.0469C52.353 19.6619 161.851 -20.6201 198.519 52.2629C203.925 63.0059 204.746 63.4049 214.422 59.9879C240.817 50.6669 269.122 65.0609 278.381 92.5139C281.602 102.064 282.627 102.779 291.271 101.515C333.589 95.3279 370.011 135.252 360.091 176.952C353.436 204.924 330.685 223.136 300.172 224.916C288.892 225.574 287.216 226.453 287.216 231.713C287.216 238.092 293.937 239.742 310.525 237.435C360.771 230.446 389.672 175.909 367.456 130.004C354.842 103.938 329.839 88.1509 300.857 87.9549L291.296 87.8899L289.281 82.8669C278.032 54.8209 244.196 37.6029 215.888 45.5209C213.31 46.2419 211.104 46.5529 210.986 46.2109C210.868 45.8689 209.196 42.9409 207.269 39.7029C190.199 11.0199 156.243 -4.56009 123.31 1.17991ZM77.362 169.977C73.424 172.752 73.602 179.282 77.666 181.134C79.024 181.753 87.974 182.03 106.585 182.03H133.537L135.454 180.113C137.816 177.751 138.008 173.614 135.879 170.984L134.386 169.14L106.778 168.922C82.291 168.728 78.965 168.848 77.362 169.977ZM151.787 170.537C148.694 173.197 148.661 177.553 151.712 180.178C155.035 183.036 170.077 182.99 172.954 180.113C175.315 177.752 175.508 173.615 173.38 170.984C171.002 168.044 155.068 167.714 151.787 170.537ZM189.24 170.577C186.195 173.196 186.183 177.572 189.212 180.178L191.365 182.03H224.951H258.537L260.454 180.113C262.816 177.751 263.008 173.614 260.879 170.984L259.386 169.14L225.403 168.921L191.421 168.702L189.24 170.577ZM102.018 207.799C99.604 209.698 98.822 212.472 99.901 215.311C101.533 219.601 100.261 219.479 143.462 219.505L183.537 219.53L185.454 217.613C188.616 214.451 187.986 209.354 184.191 207.392C180.24 205.349 104.657 205.723 102.018 207.799ZM203.361 206.968C199.08 208.768 198.176 214.637 201.711 217.677C205.121 220.61 232.509 220.558 235.454 217.613C237.815 215.252 238.008 211.115 235.88 208.484C234.291 206.52 207.407 205.267 203.361 206.968ZM253.361 206.968C249.136 208.745 248.266 214.714 251.791 217.746C254.857 220.384 282 220.518 285.314 217.911C287.874 215.897 288.151 211.291 285.88 208.484C284.291 206.52 257.407 205.267 253.361 206.968ZM77.997 244.76C75.121 246.215 73.764 249.501 74.806 252.49C76.394 257.043 75.944 256.978 105.962 257.005L133.537 257.03L135.454 255.113C138.616 251.951 137.986 246.854 134.191 244.892C131.176 243.333 81.051 243.215 77.997 244.76ZM153.012 244.752C148.937 246.815 148.294 251.7 151.629 255.272C154.229 258.059 170.128 257.939 172.954 255.113C176.116 251.951 175.486 246.854 171.691 244.892C168.886 243.441 155.797 243.344 153.012 244.752ZM190.861 244.48C186.787 246.163 185.768 251.707 188.916 255.058L190.769 257.03H224.512C257.466 257.03 258.303 256.992 260.314 255.411C262.875 253.396 263.151 248.791 260.879 245.984L259.386 244.14L225.918 243.981C207.511 243.894 191.735 244.118 190.861 244.48ZM102.997 282.26C100.121 283.715 98.764 287.001 99.806 289.99C101.428 294.642 99.842 294.478 143.462 294.505L183.537 294.53L185.454 292.613C188.616 289.451 187.986 284.354 184.191 282.392C181.152 280.82 106.084 280.698 102.997 282.26ZM203.361 281.992C199.292 283.642 198.268 289.206 201.416 292.558L203.269 294.53H218.262C236.741 294.53 239.973 292.842 236.887 284.8C235.65 281.576 209.739 279.407 203.361 281.992ZM253.361 281.992C249.345 283.62 248.35 289.293 251.493 292.639C254.07 295.382 281.887 295.606 285.314 292.911C288.731 290.223 288.112 284.419 284.191 282.392C281.726 281.117 256.331 280.788 253.361 281.992Z" fill="white"/>
</svg>
