<svg width="635" height="635" viewBox="0 0 635 635" fill="none" xmlns="http://www.w3.org/2000/svg">
<path fill-rule="evenodd" clip-rule="evenodd" d="M291.313 127.468C288.572 132.563 157.348 415.475 155.675 419.898C148.392 439.157 166.855 461.691 187.355 458.566C189.453 458.246 219.219 447.18 253.5 433.976C287.782 420.772 316.383 409.977 317.06 409.988C317.737 409.999 344.84 420.251 377.287 432.771C409.734 445.291 438.438 456.253 441.072 457.131C462.773 464.367 484.866 443.742 478.963 421.757C478.441 419.813 447.637 352.642 410.512 272.489L343.008 126.754L337.779 121.489C323.859 107.475 300.453 110.487 291.313 127.468Z" fill="white"/>
<circle cx="317.5" cy="317.5" r="314" stroke="white" stroke-width="7"/>
</svg>
