<svg width="281" height="401" viewBox="0 0 281 401" fill="none" xmlns="http://www.w3.org/2000/svg">
<path fill-rule="evenodd" clip-rule="evenodd" d="M118.876 1.64595C38.9703 14.124 -12.7097 88.234 2.72427 168.209C12.5463 219.109 49.9563 287.762 109.066 363.367C125.416 384.279 138.759 400.013 140.144 400.013C143.848 400.013 191.311 338.565 213.16 305.482C280.23 203.926 295.591 136.903 265.536 76.956C238.582 23.196 178.487 -7.66305 118.876 1.64595ZM151.863 92.245C181.969 99.32 198.08 133.352 184.758 161.732C167.252 199.026 113.036 199.026 95.5303 161.732C77.8573 124.084 111.381 82.733 151.863 92.245Z" fill="white"/>
</svg>
