<svg width="363" height="226" viewBox="0 0 363 226" fill="none" xmlns="http://www.w3.org/2000/svg">
<path fill-rule="evenodd" clip-rule="evenodd" d="M62.5278 35.938V71.875H51.0067H39.4848L57.2567 89.646L75.0277 107.418L92.7988 89.646L110.571 71.875H99.0488H87.5277V35.938V0H75.0277H62.5278V35.938ZM137.528 35.938V71.875H126.007H114.485L132.257 89.646L150.028 107.418L167.799 89.646L185.571 71.875H174.049H162.528V35.938V0H150.028H137.528V35.938ZM225.623 64.017C209.539 69.159 200.028 83.018 200.028 101.314C200.028 110.837 200.957 112.5 206.278 112.5C211.235 112.5 212.186 110.958 212.824 101.889C213.977 85.477 223.195 75.643 237.425 75.643C262.404 75.643 271.314 109.399 249.472 121.286C242.792 124.922 240.929 124.988 144.364 124.994C40.9718 125.001 50.0278 124.4 50.0278 131.25C50.0278 138.111 40.3688 137.5 148.881 137.5C261.146 137.5 253.514 138.26 265.045 125.933C291.582 97.562 262.681 52.171 225.623 64.017ZM1.59075 126.563C-0.53025 128.683 -0.53025 133.817 1.59075 135.938C3.04875 137.396 4.19475 137.5 18.7778 137.5C36.7118 137.5 37.5278 137.228 37.5278 131.25C37.5278 125.272 36.7118 125 18.7778 125C4.19475 125 3.04875 125.104 1.59075 126.563ZM1.59075 151.563C-0.53025 153.683 -0.53025 158.817 1.59075 160.938C3.08775 162.435 4.19475 162.5 28.1528 162.5C56.6217 162.5 56.2778 162.576 56.2778 156.25C56.2778 149.924 56.6217 150 28.1528 150C4.19475 150 3.08775 150.065 1.59075 151.563ZM70.3408 151.563C69.2988 152.604 68.7777 154.167 68.7777 156.25C68.7777 161.736 70.3047 162.5 81.2777 162.5C92.2507 162.5 93.7777 161.736 93.7777 156.25C93.7777 150.764 92.2507 150 81.2777 150C72.9447 150 71.7288 150.174 70.3408 151.563ZM107.841 151.563C105.98 153.423 105.733 158.331 107.387 160.593C108.473 162.078 110.752 162.117 219.301 162.5L330.106 162.891L334.439 164.923C358.619 176.264 351.605 211.727 325.165 211.81C309.718 211.859 300.063 200.344 300.034 181.836C300.026 177.044 298.155 175 293.778 175C288.447 175 287.528 176.656 287.528 186.259C287.528 213.446 311.252 231.433 336.676 223.52C371.466 212.692 371 161.45 336.019 151.239C328.596 149.072 110.021 149.382 107.841 151.563ZM1.59075 176.563C-0.53025 178.683 -0.53025 183.817 1.59075 185.938C3.10075 187.448 4.19475 187.5 34.4028 187.5C69.9208 187.5 68.7777 187.708 68.7777 181.25C68.7777 174.792 69.9208 175 34.4028 175C4.19475 175 3.10075 175.052 1.59075 176.563ZM82.8408 176.563C77.6958 181.707 81.8347 187.5 90.6527 187.5C98.1897 187.5 100.028 186.275 100.028 181.25C100.028 176.225 98.1897 175 90.6527 175C85.4447 175 84.1428 175.26 82.8408 176.563ZM114.091 176.563C113.049 177.604 112.528 179.167 112.528 181.25C112.528 187.708 111.385 187.5 146.903 187.5C182.421 187.5 181.278 187.708 181.278 181.25C181.278 174.792 182.421 175 146.903 175C116.695 175 115.601 175.052 114.091 176.563ZM195.341 176.563C190.196 181.707 194.335 187.5 203.153 187.5C210.69 187.5 212.528 186.275 212.528 181.25C212.528 176.225 210.69 175 203.153 175C197.945 175 196.643 175.26 195.341 176.563Z" fill="white"/>
</svg>
