<svg width="3910" height="1412" viewBox="0 0 3910 1412" fill="none" xmlns="http://www.w3.org/2000/svg">
<path fill-rule="evenodd" clip-rule="evenodd" d="M1904.73 2.33504C1363.32 46.2267 1069.2 648.072 1368.47 1099.65C1663.97 1545.55 2339.16 1506.76 2583.51 1029.85C2832.91 543.069 2446.68 -41.5999 1904.73 2.33504ZM2115.17 124.983C2186.35 142.919 2278.49 191.145 2339.89 242.589C2371.33 268.93 2385.53 313.651 2385.53 386.299V424.531L2368.31 463.691C2334.43 540.776 2328.68 574.331 2340.87 623.89C2354.89 680.844 2424.8 789.246 2458.91 806.883C2479.73 817.652 2495.34 814.431 2517.31 794.819C2533.76 780.14 2550.65 768.655 2555.8 768.655C2557.62 768.655 2557.19 771.628 2548.21 820.759C2510.56 1026.84 2354.99 1207.7 2155.88 1276.83C2120.27 1289.2 2120.65 1289.53 2134.91 1258.65C2152.46 1220.65 2175.44 1191.21 2236.83 1128.07C2298.64 1064.49 2310.94 1047.23 2314.03 1019.79C2319.67 969.682 2271.61 932.846 2178.76 916.122C2119.39 905.427 2116.1 902.379 2077.9 822.506C2038.18 739.446 1990.31 713.962 1893.35 724.26C1760.15 738.404 1719.35 720.02 1707.72 640.61C1702.6 605.62 1693.75 585.057 1674.62 563.718C1643.32 528.787 1643.05 496.947 1673.83 472.34C1694.93 455.474 1710.58 457.948 1768.9 487.381C1824.12 515.245 1840.45 518.36 1864.79 505.655C1892.93 490.972 1899.54 469.099 1903.27 378.397C1908.46 252.202 1924.82 220.55 2002 187.381C2037.56 172.1 2058.16 156.874 2073.6 134.447C2081.57 122.871 2087.13 117.596 2090.36 118.54C2093.03 119.315 2104.19 122.218 2115.17 124.983ZM1401.33 591.963C1435.93 696.833 1500.93 765.701 1627.97 832.107C1700.77 870.162 1697.61 862.7 1698.51 998.639L1698.89 1055.97L1708.11 1072.65C1719.77 1093.76 1740.14 1109.88 1786.16 1134.42C1873.65 1181.1 1897.05 1213.79 1897.05 1289.38V1309.55L1883.99 1307.69C1510.39 1254.14 1273.41 899.614 1373.87 544.548L1382.07 515.571L1387.64 541.476C1390.71 555.722 1396.87 578.441 1401.33 591.963Z" fill="white"/>
<path fill-rule="evenodd" clip-rule="evenodd" d="M3424.8 653.581C3415.29 658.814 3414.69 661.316 3414.69 695.908C3414.69 734.03 3417.46 740.382 3434.04 740.384C3451.1 740.384 3455.39 731.439 3455.39 695.908C3455.39 657.106 3444.87 642.548 3424.8 653.581ZM3232.48 705.32C3219.63 712.804 3221.03 725.236 3238.02 754.75C3256.7 787.188 3267.7 793.111 3282.26 778.558C3292.14 768.681 3291.2 762.978 3275.12 735.021C3257.04 703.572 3247.22 696.738 3232.48 705.32ZM3610.57 710.755C3605.68 714.602 3582.84 752.861 3580.97 760.35C3576.54 778.055 3599.08 792.461 3613.49 781.129C3622.39 774.129 3642.61 736.131 3642.61 726.406C3642.61 709.766 3623.62 700.491 3610.57 710.755ZM3404.41 766.311C3294.32 778.169 3201.8 851.091 3165.11 954.922L3159.73 970.167L3065.51 970.172L2971.29 970.179L2965.87 975.594C2955.6 985.863 2959.36 1004.1 2972.8 1009.21C2978.99 1011.56 3891.01 1011.56 3897.2 1009.21C3910.64 1004.1 3914.4 985.863 3904.13 975.594L3898.71 970.179H3803.97C3715.34 970.179 3709.17 969.968 3708.26 966.934C3669.8 837.905 3539.35 751.78 3404.41 766.311ZM3476.71 810.066C3540.98 820.658 3599.67 858.732 3637.47 914.364C3646.62 927.832 3664.78 963.335 3664.83 967.861C3664.85 969.702 3617.48 970.179 3434.1 970.179H3203.34L3207 960.916C3249.23 853.788 3361.38 791.064 3476.71 810.066ZM3093.5 845.197C3084.28 850.204 3081.22 866.607 3087.94 875.063C3094.13 882.856 3139 907.169 3147.18 907.169C3162.35 907.169 3171.83 891.877 3165.06 878.311C3156.66 861.45 3106.4 838.199 3093.5 845.197ZM3733.35 856.25C3702.68 873.721 3696.67 882.358 3704.57 897.634C3711.33 910.692 3723.17 910.158 3749.01 895.639C3781.29 877.497 3787.37 868.742 3778.03 853.845C3769.71 840.571 3759.95 841.095 3733.35 856.25ZM3094.52 1060.27C3081.86 1066.51 3079.75 1083.39 3090.36 1093.55L3096.02 1098.97L3428.17 1099.52C3610.85 1099.81 3763.79 1099.57 3768.04 1098.97C3788.57 1096.05 3793.83 1067.74 3775.28 1059.99C3765.07 1055.73 3103.18 1056 3094.52 1060.27ZM3245.87 1151.55C3242.95 1154.48 3240 1159.06 3239.33 1161.74C3237.56 1168.79 3239.8 1175.6 3245.87 1181.68L3251.2 1187H3434.61C3615.68 1187 3618.07 1186.95 3622.77 1183.26C3633.15 1175.1 3633.15 1158.13 3622.77 1149.96C3618.07 1146.28 3615.68 1146.23 3434.61 1146.23H3251.2L3245.87 1151.55Z" fill="white"/>
<path fill-rule="evenodd" clip-rule="evenodd" d="M464.804 653.581C455.29 658.814 454.692 661.316 454.692 695.908C454.692 734.03 457.456 740.382 474.044 740.384C491.097 740.384 495.391 731.439 495.391 695.908C495.391 657.106 484.871 642.548 464.804 653.581ZM272.483 705.32C259.635 712.804 261.027 725.236 278.021 754.75C296.699 787.188 307.701 793.111 322.256 778.558C332.136 768.681 331.201 762.978 315.123 735.021C297.036 703.572 287.225 696.738 272.483 705.32ZM650.565 710.755C645.675 714.602 622.84 752.861 620.965 760.35C616.536 778.055 639.081 792.461 653.491 781.129C662.391 774.129 682.614 736.131 682.614 726.406C682.614 709.766 663.618 700.491 650.565 710.755ZM444.413 766.311C334.319 778.169 241.796 851.091 205.114 954.922L199.726 970.167L105.509 970.172L11.2906 970.179L5.8737 975.594C-4.39784 985.863 -0.639442 1004.1 12.8021 1009.21C18.9901 1011.56 931.01 1011.56 937.198 1009.21C950.639 1004.1 954.398 985.863 944.126 975.594L938.709 970.179H843.969C755.345 970.179 749.169 969.968 748.262 966.934C709.796 837.905 579.355 751.78 444.413 766.311ZM516.708 810.066C580.978 820.658 639.667 858.732 677.47 914.364C686.621 927.832 704.78 963.335 704.832 967.861C704.853 969.702 657.484 970.179 474.101 970.179H243.343L246.995 960.916C289.232 853.788 401.381 791.064 516.708 810.066ZM133.503 845.197C124.275 850.204 121.217 866.607 127.936 875.063C134.129 882.856 178.995 907.169 187.181 907.169C202.355 907.169 211.829 891.877 205.064 878.311C196.655 861.45 146.403 838.199 133.503 845.197ZM773.349 856.25C742.677 873.721 736.672 882.358 744.573 897.634C751.328 910.692 763.165 910.158 789.007 895.639C821.293 877.497 827.371 868.742 818.03 853.845C809.706 840.571 799.955 841.095 773.349 856.25ZM134.516 1060.27C121.855 1066.51 119.746 1083.39 130.357 1093.55L136.018 1098.97L468.171 1099.52C650.855 1099.81 803.794 1099.57 808.038 1098.97C828.574 1096.05 833.835 1067.74 815.28 1059.99C805.075 1055.73 143.176 1056 134.516 1060.27ZM285.875 1151.55C282.947 1154.48 280.002 1159.06 279.328 1161.74C277.561 1168.79 279.796 1175.6 285.875 1181.68L291.199 1187H474.609C655.683 1187 658.075 1186.95 662.766 1183.26C673.151 1175.1 673.151 1158.13 662.766 1149.96C658.075 1146.28 655.683 1146.23 474.609 1146.23H291.199L285.875 1151.55Z" fill="white"/>
<path d="M3414.71 357.003L3420.98 350.704C3429.88 341.765 3440.12 341.765 3449.02 350.704L3455.29 357.003V418.558V480.113L3467.94 468.129C3485.28 451.702 3499.08 450.177 3507.92 463.717C3516.51 476.89 3514.06 481.133 3475.69 519.499L3444.18 551H3435H3425.82L3394.31 519.499C3355.94 481.133 3353.49 476.89 3362.08 463.717C3370.92 450.177 3384.72 451.702 3402.06 468.129L3414.71 480.113V418.558V357.003Z" fill="white"/>
<path d="M495.295 537.997L489.02 544.296C480.122 553.235 469.878 553.235 460.977 544.296L454.705 537.997L454.705 476.442L454.705 414.887L442.057 426.871C424.719 443.298 410.918 444.823 402.084 431.283C393.49 418.11 395.939 413.867 434.314 375.501L465.816 344L475 344L484.184 344L515.686 375.501C554.061 413.867 556.51 418.11 547.916 431.283C539.082 444.823 525.281 443.298 507.943 426.871L495.295 414.887L495.295 476.442L495.295 537.997Z" fill="white"/>
</svg>
