<svg width="715" height="474" viewBox="0 0 715 474" fill="none" xmlns="http://www.w3.org/2000/svg">
<path fill-rule="evenodd" clip-rule="evenodd" d="M308.081 3.2601C204.454 17.6531 102.885 78.0421 32.4882 167.114C-18.433 231.541 -11.55 266.535 67.7557 346.408C241.773 521.67 493.653 515.755 660.353 332.494C732.288 253.411 732.876 223.763 664.055 145.978C570.355 40.0699 434.68 -14.3239 308.081 3.2601ZM385.995 55.7641C479.182 61.5154 575.722 118.68 646.228 209.858C664.928 234.043 664.928 240.441 646.228 264.626C485.695 472.229 228.891 472.229 68.3583 264.626C46.6405 236.538 48.5261 230.215 93.7948 179.39C165.256 99.1534 273.662 48.8041 363.034 54.3452C367.546 54.6248 377.879 55.2638 385.995 55.7641ZM327.888 107.553C199.028 134.509 190.426 324.592 316.283 363.954C332.568 369.048 379.288 369.613 396.664 364.925C518.756 331.998 520.52 149.877 399.124 110.749C386.272 106.605 341.927 104.617 327.888 107.553ZM390.511 166.191C450.06 194.088 450.046 280.123 390.486 308.369C373.753 316.304 340.833 316.304 324.1 308.369C259.684 277.819 267.409 178.88 335.55 161.743C349.541 158.224 378.511 160.57 390.511 166.191Z" fill="white"/>
</svg>
